# xmcd
#
# Track frame offsets: 
#        150
#        13995
#        26750
#        40371
#        52455
#        68250
#        81401
#        95711
#        106171
#        118905
#        132766
#        148825
#        161546
#        176566
#        190803
#        202314
#        213795
#        225715
#        237552
#        251163
#        263778
#        277365
#        290616
#        302927
#        317417
#        330346
#
# Disc length: 4608 seconds
#
# Revision: 0
# Processed by: cddbd v1.5.2PL0 Copyright (c) Steve Scherf et al.
# Submitted via: ExactAudioCopy v0.95b4
#
DISCID=9811fe1a
DTITLE=Ray Charles - The Way I Feel 2 [It Should've Been Me]
DYEAR=2007
DGENRE=Blues
TTITLE0=All To Myself
TTITLE1=Lonely Boy
TTITLE2=Baby, Let Me Hold Your Hand
TTITLE3=I'm Glad For Your Sake
TTITLE4=I'm Glad For Your Sake
TTITLE5=Baby, Won't You Please Come
TTITLE6=Kissa Me Baby
TTITLE7=Hey Now
TTITLE8=The Snow Is Falling
TTITLE9=Misery In My Heart
TTITLE10=Let Me Here You Call My Name
TTITLE11=I Can't Do No More
TTITLE12=I'm Wonderin' And Wonderin'
TTITLE13=Walkin' And Talkin'
TTITLE14=Guitar Blues
TTITLE15=Roly Poly
TTITLE16=The Sun's Gonna Shine Again
TTITLE17=Roll With Me Baby
TTITLE18=The Midnight Hour
TTITLE19=Jumpin' In The Mornin'
TTITLE20=Worried Life Blues [Someday Baby]
TTITLE21=Low Society
TTITLE22=It Should've Been Me
TTITLE23=Losing Hand
TTITLE24=Heartbreaker
TTITLE25=Sinner's Prayer
EXTD=
EXTT0=
EXTT1=
EXTT2=
EXTT3=
EXTT4=
EXTT5=
EXTT6=
EXTT7=
EXTT8=
EXTT9=
EXTT10=
EXTT11=
EXTT12=
EXTT13=
EXTT14=
EXTT15=
EXTT16=
EXTT17=
EXTT18=
EXTT19=
EXTT20=
EXTT21=
EXTT22=
EXTT23=
EXTT24=
EXTT25=
PLAYORDER=
